<?xml version="1.0" encoding="UTF-8" standalone="no"?>
<!-- Created with Inkscape (http://www.inkscape.org/) -->

<svg
   xmlns:dc="http://purl.org/dc/elements/1.1/"
   xmlns:cc="http://creativecommons.org/ns#"
   xmlns:rdf="http://www.w3.org/1999/02/22-rdf-syntax-ns#"
   xmlns:svg="http://www.w3.org/2000/svg"
   xmlns="http://www.w3.org/2000/svg"
   xmlns:xlink="http://www.w3.org/1999/xlink"
   xmlns:sodipodi="http://sodipodi.sourceforge.net/DTD/sodipodi-0.dtd"
   xmlns:inkscape="http://www.inkscape.org/namespaces/inkscape"
   width="744.09448819"
   height="1052.3622047"
   id="svg2"
   version="1.1"
   inkscape:version="0.48.3.1 r9886"
   sodipodi:docname="New document 1">
  <defs
     id="defs4">
    <linearGradient
       id="linearGradient3818">
      <stop
         style="stop-color:#ffff00;stop-opacity:1;"
         offset="0"
         id="stop3820" />
      <stop
         id="stop3826"
         offset="0.2446368"
         style="stop-color:#ffffc5;stop-opacity:1;" />
      <stop
         style="stop-color:#ffff00;stop-opacity:1;"
         offset="1"
         id="stop3822" />
    </linearGradient>
    <linearGradient
       id="linearGradient3810">
      <stop
         style="stop-color:#f8fb00;stop-opacity:0.34782609;"
         offset="0"
         id="stop3812" />
      <stop
         style="stop-color:#fffb00;stop-opacity:1;"
         offset="1"
         id="stop3814" />
    </linearGradient>
    <linearGradient
       id="linearGradient3775">
      <stop
         style="stop-color:#ffff24;stop-opacity:0;"
         offset="0"
         id="stop3777" />
      <stop
         style="stop-color:#ffd000;stop-opacity:1;"
         offset="1"
         id="stop3779" />
    </linearGradient>
    <linearGradient
       id="linearGradient3767">
      <stop
         style="stop-color:#ff0000;stop-opacity:0.35652173;"
         offset="0"
         id="stop3769" />
      <stop
         style="stop-color:#f80000;stop-opacity:1;"
         offset="1"
         id="stop3771" />
    </linearGradient>
    <linearGradient
       inkscape:collect="always"
       xlink:href="#linearGradient3767"
       id="linearGradient3773"
       x1="106.46429"
       y1="363.79076"
       x2="542.10714"
       y2="363.79076"
       gradientUnits="userSpaceOnUse"
       gradientTransform="matrix(1.1031084,0,0,1,-12.962203,0)" />
    <linearGradient
       inkscape:collect="always"
       xlink:href="#linearGradient3775"
       id="linearGradient3781"
       x1="106.46429"
       y1="363.79076"
       x2="542.10714"
       y2="363.79076"
       gradientUnits="userSpaceOnUse"
       gradientTransform="matrix(1.1031084,0,0,1,-12.962203,0)" />
    <radialGradient
       inkscape:collect="always"
       xlink:href="#linearGradient3810"
       id="radialGradient3816"
       cx="131.42857"
       cy="638.07648"
       fx="131.42857"
       fy="638.07648"
       r="385.0391"
       gradientTransform="matrix(1,0,0,0.95873703,0,26.328929)"
       gradientUnits="userSpaceOnUse" />
    <radialGradient
       inkscape:collect="always"
       xlink:href="#linearGradient3818"
       id="radialGradient3824"
       cx="131.42857"
       cy="638.07648"
       fx="131.42857"
       fy="638.07648"
       r="408.88982"
       gradientTransform="matrix(1,0,0,0.96114392,0,24.793151)"
       gradientUnits="userSpaceOnUse" />
  </defs>
  <sodipodi:namedview
     id="base"
     pagecolor="#ffffff"
     bordercolor="#666666"
     borderopacity="1.0"
     inkscape:pageopacity="0.0"
     inkscape:pageshadow="2"
     inkscape:zoom="0.35"
     inkscape:cx="483.16592"
     inkscape:cy="520"
     inkscape:document-units="px"
     inkscape:current-layer="layer1"
     showgrid="false"
     inkscape:window-width="1221"
     inkscape:window-height="669"
     inkscape:window-x="172"
     inkscape:window-y="0"
     inkscape:window-maximized="0" />
  <metadata
     id="metadata7">
    <rdf:RDF>
      <cc:Work
         rdf:about="">
        <dc:format>image/svg+xml</dc:format>
        <dc:type
           rdf:resource="http://purl.org/dc/dcmitype/StillImage" />
        <dc:title></dc:title>
      </cc:Work>
    </rdf:RDF>
  </metadata>
  <g
     inkscape:label="Layer 1"
     inkscape:groupmode="layer"
     id="layer1">
    <rect
       style="opacity:0.86000001;color:#000000;fill:url(#linearGradient3773);fill-opacity:1;fill-rule:nonzero;stroke:url(#linearGradient3781);stroke-width:40.43615341;stroke-linecap:round;stroke-linejoin:round;stroke-miterlimit:4;stroke-opacity:1;stroke-dasharray:none;stroke-dashoffset:0;marker:none;visibility:visible;display:inline;overflow:visible;enable-background:accumulate"
       id="rect2987"
       width="438.09161"
       height="171.42857"
       x="125.71429"
       y="278.07648"
       ry="85.714287"
       inkscape:export-filename="/home/lawyer/bullet.png"
       inkscape:export-xdpi="72"
       inkscape:export-ydpi="72" />
    <g
       id="g3828"
       inkscape:export-filename="/home/lawyer/kaboom.png"
       inkscape:export-xdpi="72"
       inkscape:export-ydpi="72">
      <path
         transform="matrix(0.92173488,0.04963932,-0.03320425,0.61655793,298.57064,413.85561)"
         d="m 497.14287,703.79076 c -3.46212,19.26744 -154.3798,87.16785 -167.0118,102.12288 -12.63199,14.95503 -54.33845,175.10242 -72.75559,181.73785 -18.41715,6.63544 -152.67947,-90.1129 -171.946904,-93.57502 -19.267433,-3.46211 -178.812365,40.49273 -193.767396,27.86073 -14.95502,-12.63199 1.70033,-177.28075 -4.9351,-195.69789 -6.63544,-18.41715 -124.47392,-134.60969 -121.0118,-153.87712 3.46211,-19.26743 154.379796,-87.16785 167.011793,-102.12288 12.631998,-14.95503 54.338451,-175.10241 72.7555955,-181.73785 18.4171445,-6.63543 152.6794715,90.11291 171.9469015,93.57502 19.26743,3.46212 178.81237,-40.49273 193.76739,-27.86073 14.95503,12.632 -1.70032,177.28075 4.93511,195.6979 6.63544,18.41714 124.47392,134.60968 121.0118,153.87711 z"
         inkscape:randomized="0"
         inkscape:rounded="0.1"
         inkscape:flatsided="false"
         sodipodi:arg2="0.701389"
         sodipodi:arg1="0.17779023"
         sodipodi:r2="260.09998"
         sodipodi:r1="371.57141"
         sodipodi:cy="638.07648"
         sodipodi:cx="131.42857"
         sodipodi:sides="6"
         id="path3783"
         style="opacity:0.86000001;color:#000000;fill:none;stroke:#ff0000;stroke-width:38.5;stroke-linecap:round;stroke-linejoin:round;stroke-miterlimit:4;stroke-opacity:1;stroke-dasharray:none;stroke-dashoffset:0;marker:none;visibility:visible;display:inline;overflow:visible;enable-background:accumulate"
         sodipodi:type="star" />
      <path
         transform="matrix(0.69427797,0.00696854,-0.00466133,0.46440967,310.25241,516.546)"
         d="m 497.14287,703.79076 c -3.46212,19.26744 -154.3798,87.16785 -167.0118,102.12288 -12.63199,14.95503 -54.33845,175.10242 -72.75559,181.73785 -18.41715,6.63544 -152.67947,-90.1129 -171.946904,-93.57502 -19.267433,-3.46211 -178.812365,40.49273 -193.767396,27.86073 -14.95502,-12.63199 1.70033,-177.28075 -4.9351,-195.69789 -6.63544,-18.41715 -124.47392,-134.60969 -121.0118,-153.87712 3.46211,-19.26743 154.379796,-87.16785 167.011793,-102.12288 12.631998,-14.95503 54.338451,-175.10241 72.7555955,-181.73785 18.4171445,-6.63543 152.6794715,90.11291 171.9469015,93.57502 19.26743,3.46212 178.81237,-40.49273 193.76739,-27.86073 14.95503,12.632 -1.70032,177.28075 4.93511,195.6979 6.63544,18.41714 124.47392,134.60968 121.0118,153.87711 z"
         inkscape:randomized="0"
         inkscape:rounded="0.1"
         inkscape:flatsided="false"
         sodipodi:arg2="0.701389"
         sodipodi:arg1="0.17779023"
         sodipodi:r2="260.09998"
         sodipodi:r1="371.57141"
         sodipodi:cy="638.07648"
         sodipodi:cx="131.42857"
         sodipodi:sides="6"
         id="path3783-5"
         style="opacity:0.86000001;color:#000000;fill:url(#radialGradient3816);fill-opacity:1;fill-rule:nonzero;stroke:#ff0907;stroke-width:38.5;stroke-linecap:round;stroke-linejoin:round;stroke-miterlimit:4;stroke-opacity:1;stroke-dasharray:none;stroke-dashoffset:0;marker:none;visibility:visible;display:inline;overflow:visible;enable-background:accumulate"
         sodipodi:type="star" />
      <path
         transform="matrix(0.38298402,0.00880378,-0.00588894,0.25618194,351.94864,649.17001)"
         d="m 497.14287,703.79076 c -3.46212,19.26744 -154.3798,87.16785 -167.0118,102.12288 -12.63199,14.95503 -54.33845,175.10242 -72.75559,181.73785 -18.41715,6.63544 -152.67947,-90.1129 -171.946904,-93.57502 -19.267433,-3.46211 -178.812365,40.49273 -193.767396,27.86073 -14.95502,-12.63199 1.70033,-177.28075 -4.9351,-195.69789 -6.63544,-18.41715 -124.47392,-134.60969 -121.0118,-153.87712 3.46211,-19.26743 154.379796,-87.16785 167.011793,-102.12288 12.631998,-14.95503 54.338451,-175.10241 72.7555955,-181.73785 18.4171445,-6.63543 152.6794715,90.11291 171.9469015,93.57502 19.26743,3.46212 178.81237,-40.49273 193.76739,-27.86073 14.95503,12.632 -1.70032,177.28075 4.93511,195.6979 6.63544,18.41714 124.47392,134.60968 121.0118,153.87711 z"
         inkscape:randomized="0"
         inkscape:rounded="0.1"
         inkscape:flatsided="false"
         sodipodi:arg2="0.701389"
         sodipodi:arg1="0.17779023"
         sodipodi:r2="260.09998"
         sodipodi:r1="371.57141"
         sodipodi:cy="638.07648"
         sodipodi:cx="131.42857"
         sodipodi:sides="6"
         id="path3783-3"
         style="opacity:0.86000001;color:#000000;fill:url(#radialGradient3824);fill-opacity:1;stroke:#ffac11;stroke-width:86.20144653;stroke-linecap:round;stroke-linejoin:round;stroke-miterlimit:4;stroke-opacity:1;stroke-dasharray:none;stroke-dashoffset:0;marker:none;visibility:visible;display:inline;overflow:visible;enable-background:accumulate"
         sodipodi:type="star" />
    </g>
  </g>
</svg>
